<svg xmlns="http://www.w3.org/2000/svg" viewBox="0 0 32 32" width="32" height="32" shape-rendering="crispEdges">
  <!-- hotspot: 15,15 -->
  <rect x="12" y="10" width="7" height="1" fill="rgb(255,255,255)"/><rect x="10" y="11" width="2" height="1" fill="rgb(255,255,255)"/><rect x="12" y="11" width="1" height="1" fill="rgb(130,130,130)"/><rect x="13" y="11" width="2" height="1" fill="rgb(0,0,0)"/><rect x="15" y="11" width="1" height="1" fill="rgb(130,130,130)"/><rect x="16" y="11" width="2" height="1" fill="rgb(0,0,0)"/><rect x="18" y="11" width="1" height="1" fill="rgb(130,130,130)"/><rect x="19" y="11" width="1" height="1" fill="rgb(255,255,255)"/><rect x="9" y="12" width="1" height="1" fill="rgb(255,255,255)"/><rect x="10" y="12" width="1" height="1" fill="rgb(130,130,130)"/><rect x="11" y="12" width="2" height="1" fill="rgb(0,0,0)"/><rect x="13" y="12" width="2" height="1" fill="rgb(255,255,255)"/><rect x="15" y="12" width="1" height="1" fill="rgb(0,0,0)"/><rect x="16" y="12" width="2" height="1" fill="rgb(255,255,255)"/><rect x="18" y="12" width="1" height="1" fill="rgb(0,0,0)"/><rect x="19" y="12" width="1" height="1" fill="rgb(130,130,130)"/><rect x="20" y="12" width="1" height="1" fill="rgb(255,255,255)"/><rect x="9" y="13" width="1" height="1" fill="rgb(255,255,255)"/><rect x="10" y="13" width="1" height="1" fill="rgb(0,0,0)"/><rect x="11" y="13" width="2" height="1" fill="rgb(255,255,255)"/><rect x="13" y="13" width="1" height="1" fill="rgb(0,0,0)"/><rect x="14" y="13" width="2" height="1" fill="rgb(255,255,255)"/><rect x="16" y="13" width="1" height="1" fill="rgb(0,0,0)"/><rect x="17" y="13" width="2" height="1" fill="rgb(255,255,255)"/><rect x="19" y="13" width="1" height="1" fill="rgb(0,0,0)"/><rect x="20" y="13" width="1" height="1" fill="rgb(130,130,130)"/><rect x="21" y="13" width="1" height="1" fill="rgb(255,255,255)"/><rect x="9" y="14" width="1" height="1" fill="rgb(255,255,255)"/><rect x="10" y="14" width="1" height="1" fill="rgb(0,0,0)"/><rect x="11" y="14" width="3" height="1" fill="rgb(255,255,255)"/><rect x="14" y="14" width="1" height="1" fill="rgb(0,0,0)"/><rect x="15" y="14" width="2" height="1" fill="rgb(255,255,255)"/><rect x="17" y="14" width="1" height="1" fill="rgb(0,0,0)"/><rect x="18" y="14" width="2" height="1" fill="rgb(255,255,255)"/><rect x="20" y="14" width="1" height="1" fill="rgb(0,0,0)"/><rect x="21" y="14" width="1" height="1" fill="rgb(130,130,130)"/><rect x="22" y="14" width="1" height="1" fill="rgb(255,255,255)"/><rect x="9" y="15" width="1" height="1" fill="rgb(255,255,255)"/><rect x="10" y="15" width="1" height="1" fill="rgb(130,130,130)"/><rect x="11" y="15" width="1" height="1" fill="rgb(0,0,0)"/><rect x="12" y="15" width="3" height="1" fill="rgb(255,255,255)"/><rect x="15" y="15" width="1" height="1" fill="rgb(0,0,0)"/><rect x="16" y="15" width="5" height="1" fill="rgb(255,255,255)"/><rect x="21" y="15" width="1" height="1" fill="rgb(0,0,0)"/><rect x="22" y="15" width="1" height="1" fill="rgb(255,255,255)"/><rect x="10" y="16" width="1" height="1" fill="rgb(255,255,255)"/><rect x="11" y="16" width="1" height="1" fill="rgb(130,130,130)"/><rect x="12" y="16" width="1" height="1" fill="rgb(0,0,0)"/><rect x="13" y="16" width="8" height="1" fill="rgb(255,255,255)"/><rect x="21" y="16" width="1" height="1" fill="rgb(0,0,0)"/><rect x="22" y="16" width="1" height="1" fill="rgb(255,255,255)"/><rect x="9" y="17" width="1" height="1" fill="rgb(255,255,255)"/><rect x="10" y="17" width="1" height="1" fill="rgb(0,0,0)"/><rect x="11" y="17" width="2" height="1" fill="rgb(255,255,255)"/><rect x="13" y="17" width="1" height="1" fill="rgb(0,0,0)"/><rect x="14" y="17" width="7" height="1" fill="rgb(255,255,255)"/><rect x="21" y="17" width="1" height="1" fill="rgb(0,0,0)"/><rect x="22" y="17" width="1" height="1" fill="rgb(130,130,130)"/><rect x="23" y="17" width="1" height="1" fill="rgb(255,255,255)"/><rect x="9" y="18" width="1" height="1" fill="rgb(255,255,255)"/><rect x="10" y="18" width="1" height="1" fill="rgb(0,0,0)"/><rect x="11" y="18" width="3" height="1" fill="rgb(255,255,255)"/><rect x="14" y="18" width="1" height="1" fill="rgb(0,0,0)"/><rect x="15" y="18" width="5" height="1" fill="rgb(255,255,255)"/><rect x="20" y="18" width="1" height="1" fill="rgb(0,0,0)"/><rect x="21" y="18" width="1" height="1" fill="rgb(255,255,255)"/><rect x="22" y="18" width="1" height="1" fill="rgb(0,0,0)"/><rect x="23" y="18" width="1" height="1" fill="rgb(255,255,255)"/><rect x="9" y="19" width="1" height="1" fill="rgb(255,255,255)"/><rect x="10" y="19" width="1" height="1" fill="rgb(130,130,130)"/><rect x="11" y="19" width="1" height="1" fill="rgb(0,0,0)"/><rect x="12" y="19" width="10" height="1" fill="rgb(255,255,255)"/><rect x="22" y="19" width="1" height="1" fill="rgb(0,0,0)"/><rect x="23" y="19" width="1" height="1" fill="rgb(255,255,255)"/><rect x="10" y="20" width="1" height="1" fill="rgb(255,255,255)"/><rect x="11" y="20" width="1" height="1" fill="rgb(130,130,130)"/><rect x="12" y="20" width="1" height="1" fill="rgb(0,0,0)"/><rect x="13" y="20" width="9" height="1" fill="rgb(255,255,255)"/><rect x="22" y="20" width="1" height="1" fill="rgb(0,0,0)"/><rect x="23" y="20" width="1" height="1" fill="rgb(255,255,255)"/><rect x="11" y="21" width="1" height="1" fill="rgb(255,255,255)"/><rect x="12" y="21" width="1" height="1" fill="rgb(130,130,130)"/><rect x="13" y="21" width="2" height="1" fill="rgb(0,0,0)"/><rect x="15" y="21" width="6" height="1" fill="rgb(255,255,255)"/><rect x="21" y="21" width="1" height="1" fill="rgb(0,0,0)"/><rect x="22" y="21" width="1" height="1" fill="rgb(130,130,130)"/><rect x="23" y="21" width="1" height="1" fill="rgb(255,255,255)"/><rect x="12" y="22" width="2" height="1" fill="rgb(255,255,255)"/><rect x="14" y="22" width="1" height="1" fill="rgb(130,130,130)"/><rect x="15" y="22" width="3" height="1" fill="rgb(0,0,0)"/><rect x="18" y="22" width="2" height="1" fill="rgb(255,255,255)"/><rect x="20" y="22" width="1" height="1" fill="rgb(0,0,0)"/><rect x="21" y="22" width="1" height="1" fill="rgb(130,130,130)"/><rect x="22" y="22" width="1" height="1" fill="rgb(255,255,255)"/><rect x="14" y="23" width="3" height="1" fill="rgb(255,255,255)"/><rect x="17" y="23" width="1" height="1" fill="rgb(130,130,130)"/><rect x="18" y="23" width="2" height="1" fill="rgb(0,0,0)"/><rect x="20" y="23" width="1" height="1" fill="rgb(130,130,130)"/><rect x="21" y="23" width="1" height="1" fill="rgb(255,255,255)"/><rect x="17" y="24" width="4" height="1" fill="rgb(255,255,255)"/>
</svg>